<svg width="38" height="38" viewBox="0 0 38 38" fill="none" xmlns="http://www.w3.org/2000/svg">
<rect x="0.5" y="0.5" width="37" height="37" fill="#C3C3C3" stroke="black" stroke-dasharray="2 2"/>
<mask id="path-2-outside-1_66_3529" maskUnits="userSpaceOnUse" x="13" y="5" width="9" height="24" fill="black">
<rect fill="white" x="13" y="5" width="9" height="24"/>
<path d="M18.6723 6.43V8.83H13.9023V11.23H18.6723V28H21.1023V6.43H18.6723Z"/>
</mask>
<path d="M18.6723 6.43V8.83H13.9023V11.23H18.6723V28H21.1023V6.43H18.6723Z" fill="#001CF5"/>
<path d="M18.6723 6.43V5.93H18.1723V6.43H18.6723ZM18.6723 8.83V9.33H19.1723V8.83H18.6723ZM13.9023 8.83V8.33H13.4023V8.83H13.9023ZM13.9023 11.23H13.4023V11.73H13.9023V11.23ZM18.6723 11.23H19.1723V10.73H18.6723V11.23ZM18.6723 28H18.1723V28.5H18.6723V28ZM21.1023 28V28.5H21.6023V28H21.1023ZM21.1023 6.43H21.6023V5.93H21.1023V6.43ZM18.1723 6.43V8.83H19.1723V6.43H18.1723ZM18.6723 8.33H13.9023V9.33H18.6723V8.33ZM13.4023 8.83V11.23H14.4023V8.83H13.4023ZM13.9023 11.73H18.6723V10.73H13.9023V11.73ZM18.1723 11.23V28H19.1723V11.23H18.1723ZM18.6723 28.5H21.1023V27.5H18.6723V28.5ZM21.6023 28V6.43H20.6023V28H21.6023ZM21.1023 5.93H18.6723V6.93H21.1023V5.93Z" fill="#001CF5" mask="url(#path-2-outside-1_66_3529)"/>
</svg>
